<svg width="75" height="124" viewBox="0 0 75 124" fill="none" xmlns="http://www.w3.org/2000/svg">
<g filter="url(#filter0_d_1_163)">
<path d="M2.7839 11.6357C2.7839 4.93167 8.25907 -0.610568 14.8615 0.552517C25.0129 2.34082 34.6927 6.37078 43.1707 12.409C54.9629 20.8076 63.8434 32.6737 68.5763 46.3555C73.3092 60.0374 73.6589 74.8544 69.5768 88.7443C66.642 98.7305 61.5213 107.88 54.6448 115.559C50.1723 120.553 42.4428 119.579 38.3004 114.308C34.1579 109.036 35.2449 101.471 39.2323 96.0818C42.3785 91.8294 44.7751 87.034 46.2843 81.8989C48.9428 72.8528 48.7151 63.2029 45.6327 54.2922C42.5503 45.3816 36.7666 37.6536 29.0867 32.1838C24.7272 29.0789 19.8797 26.7893 14.7784 25.3899C8.31317 23.6163 2.7839 18.3398 2.7839 11.6357Z" fill="#5F57B5"/>
</g>
<defs>
<filter id="filter0_d_1_163" x="0.205504" y="0.397369" width="74.7744" height="123.587" filterUnits="userSpaceOnUse" color-interpolation-filters="sRGB">
<feFlood flood-opacity="0" result="BackgroundImageFix"/>
<feColorMatrix in="SourceAlpha" type="matrix" values="0 0 0 0 0 0 0 0 0 0 0 0 0 0 0 0 0 0 127 0" result="hardAlpha"/>
<feOffset dy="2.57843"/>
<feGaussianBlur stdDeviation="1.28922"/>
<feColorMatrix type="matrix" values="0 0 0 0 0.356863 0 0 0 0 0.576471 0 0 0 0 1 0 0 0 0.24 0"/>
<feBlend mode="normal" in2="BackgroundImageFix" result="effect1_dropShadow_1_163"/>
<feBlend mode="normal" in="SourceGraphic" in2="effect1_dropShadow_1_163" result="shape"/>
</filter>
</defs>
</svg>
